<?xml version="1.0" standalone="no"?>
<!DOCTYPE svg PUBLIC "-//W3C//DTD SVG 20010904//EN"
 "http://www.w3.org/TR/2001/REC-SVG-20010904/DTD/svg10.dtd">
<svg version="1.0" xmlns="http://www.w3.org/2000/svg"
 width="281.000000pt" height="300.000000pt" viewBox="0 0 281.000000 300.000000"
 preserveAspectRatio="xMidYMid meet">

<g transform="translate(0.000000,300.000000) scale(0.100000,-0.100000)"
fill="#000000" stroke="none">
<path d="M1161 2175 c-128 -17 -264 -55 -356 -100 l-70 -34 -37 43 c-21 24
-53 51 -72 60 -43 20 -108 21 -147 0 -76 -39 -77 -171 -4 -253 l35 -38 -23
-21 c-30 -28 -39 -28 -71 5 -20 20 -29 24 -38 15 -9 -9 -8 -17 1 -35 11 -20
10 -29 -1 -48 -7 -13 -14 -25 -15 -27 -1 -2 -12 4 -26 12 -21 15 -26 15 -37 1
-10 -12 -6 -18 24 -36 41 -24 43 -36 20 -116 -23 -80 -15 -228 16 -308 28 -70
28 -77 12 -385 -13 -247 -14 -570 -3 -730 5 -73 9 -95 21 -98 13 -2 15 49 15
410 0 227 4 471 9 542 l8 128 47 -45 c72 -70 120 -89 231 -95 289 -13 498 161
526 438 l7 70 173 0 174 0 0 -53 c0 -219 160 -404 392 -453 135 -29 272 -2
344 67 28 28 32 29 39 12 4 -10 10 -248 12 -530 6 -495 6 -512 24 -502 18 9
19 28 19 337 -1 180 -5 425 -10 545 l-9 218 34 67 c56 112 70 240 40 355 -19
75 -19 87 4 87 22 0 45 25 36 40 -3 5 -17 7 -31 4 -18 -5 -25 -1 -30 12 -3 11
-10 27 -15 38 -8 14 -6 21 10 33 25 17 28 43 5 43 -9 0 -27 -9 -41 -20 -32
-25 -65 -26 -88 -1 -16 19 -16 22 14 82 19 38 31 78 31 101 0 142 -159 180
-273 66 l-49 -49 -72 35 c-95 47 -203 82 -312 101 -123 23 -364 27 -493 10z
m437 -41 c182 -27 361 -94 477 -179 l50 -37 -65 7 c-121 12 -255 -31 -339
-107 -66 -59 -102 -126 -131 -236 l-11 -42 -176 2 -177 3 -11 50 c-36 159
-136 269 -284 315 -67 21 -178 26 -243 11 -21 -5 -38 -5 -38 0 0 14 100 84
167 118 188 94 519 134 781 95z m-975 -32 c15 -10 38 -33 52 -51 l24 -33 -30
-25 c-16 -14 -32 -24 -34 -22 -2 2 -7 20 -12 39 -10 40 -29 42 -26 4 2 -21 -1
-24 -15 -19 -31 13 -62 17 -62 9 0 -5 20 -20 45 -33 25 -13 45 -27 45 -30 -1
-17 -52 -62 -67 -59 -30 6 -75 82 -80 135 -4 39 -1 53 17 76 18 23 29 27 68
27 29 0 58 -7 75 -18z m1675 -25 c21 -19 23 -29 20 -74 -3 -34 -14 -66 -32
-93 -24 -36 -29 -39 -49 -29 -12 6 -30 19 -40 27 -23 20 -6 32 46 32 38 0 50
13 21 24 -9 3 -27 6 -40 6 -15 0 -23 4 -19 10 4 6 10 24 15 40 14 49 -12 35
-38 -20 -13 -28 -27 -50 -30 -50 -4 0 -23 14 -42 30 l-35 29 40 41 c62 64 133
74 183 27z m-1322 -227 l69 -35 -127 -3 c-70 -1 -186 -1 -259 0 l-131 3 39 22
c68 38 140 53 244 50 86 -2 102 -6 165 -37z m1198 9 c33 -11 70 -26 80 -34 18
-13 -6 -15 -227 -15 -136 0 -247 2 -247 6 0 9 107 54 152 64 58 12 167 3 242
-21z m-1080 -155 c3 -9 6 -31 6 -50 0 -30 3 -34 25 -34 19 0 25 5 26 23 1 32
27 -39 28 -77 1 -26 -1 -28 -29 -24 -18 3 -30 0 -30 -6 0 -6 15 -11 33 -11
l32 0 -2 -62 c-3 -67 -32 -163 -57 -188 -8 -8 -18 -24 -21 -35 -6 -19 -15 -20
-339 -20 l-334 0 -21 49 c-18 43 -21 69 -21 195 0 91 4 146 10 146 6 0 10 15
10 33 0 44 18 65 60 70 19 2 166 5 326 5 258 2 293 0 298 -14z m1291 -14 c8
-16 15 -38 15 -50 0 -11 5 -20 10 -20 6 0 10 -57 10 -151 0 -131 -3 -157 -21
-200 l-21 -49 -334 0 -334 0 -10 26 c-14 36 -13 361 1 366 6 2 13 25 16 50 4
32 11 48 22 51 9 3 154 5 323 6 l307 1 16 -30z m-714 -80 c5 0 9 -16 9 -35 0
-31 -3 -35 -25 -35 -29 0 -32 19 -12 84 11 38 12 39 15 14 2 -16 8 -28 13 -28z
m-1292 -137 c-1 -82 -3 -90 -9 -48 -6 47 -2 145 6 145 2 0 3 -44 3 -97z m2058
-56 c-2 -23 -3 -1 -3 48 0 50 1 68 3 42 2 -26 2 -67 0 -90z m-757 -14 c0 -72
-4 -123 -9 -118 -17 20 -42 112 -48 178 l-6 67 32 0 31 0 0 -127z m-630 -228
c-33 -35 -148 -91 -217 -105 -76 -16 -208 -9 -253 14 -36 19 -120 94 -120 108
0 4 138 8 307 8 l306 0 -23 -25z m1285 -9 c-53 -70 -153 -116 -250 -116 -107
1 -246 50 -320 115 l-40 34 318 1 318 0 -26 -34z"/>
<path d="M698 1614 c-35 -18 -48 -43 -48 -89 0 -60 64 -106 125 -91 60 15 87
132 42 174 -27 26 -79 28 -119 6z m40 -48 c-4 -25 -36 -34 -44 -12 -8 21 13
46 32 39 8 -3 14 -15 12 -27z"/>
<path d="M2022 1610 c-18 -11 -37 -32 -43 -46 -29 -77 69 -162 142 -124 48 26
64 118 28 164 -26 32 -79 35 -127 6z m46 -44 c-2 -13 -10 -21 -23 -21 -23 0
-33 34 -14 45 20 13 40 -1 37 -24z"/>
<path d="M1355 1375 c-5 -2 -22 -6 -38 -9 -36 -8 -67 -40 -67 -69 0 -12 -9
-28 -20 -35 -47 -29 -77 -144 -47 -183 16 -21 51 -39 76 -39 16 0 21 -6 21
-25 0 -34 25 -82 49 -95 26 -13 107 -13 133 1 24 13 48 67 48 109 0 25 4 30
24 30 38 0 56 10 71 41 30 57 9 123 -54 170 -16 12 -32 32 -35 45 -4 13 -19
30 -34 38 -28 14 -109 28 -127 21z m176 -135 c23 -13 49 -61 49 -93 0 -44 -21
-51 -110 -36 -71 11 -86 11 -133 -4 -66 -21 -101 -22 -117 -2 -17 20 -5 78 23
111 l23 26 34 -21 c49 -29 117 -28 161 3 40 28 44 29 70 16z m-72 -169 c18
-11 9 -99 -10 -112 -29 -18 -39 -9 -39 34 0 23 -3 52 -6 65 -5 18 -2 22 17 22
13 0 30 -4 38 -9z m-79 -15 c0 -7 3 -34 6 -60 6 -42 5 -46 -13 -46 -28 0 -44
22 -50 69 -4 32 -2 40 13 44 34 9 44 7 44 -7z"/>
<path d="M1150 800 c-15 -15 -20 -33 -19 -67 0 -84 16 -204 27 -215 24 -24 70
-11 160 45 l92 57 92 -55 c99 -60 149 -71 167 -37 6 11 13 71 17 134 6 109 6
116 -15 137 -11 11 -30 21 -41 21 -30 0 -121 -37 -173 -70 l-47 -29 -44 30
c-46 30 -145 69 -178 69 -10 0 -27 -9 -38 -20z"/>
</g>
</svg>
