<?xml version="1.0" standalone="no"?>
<!DOCTYPE svg PUBLIC "-//W3C//DTD SVG 20010904//EN"
 "http://www.w3.org/TR/2001/REC-SVG-20010904/DTD/svg10.dtd">
<svg version="1.0" xmlns="http://www.w3.org/2000/svg"
 width="531.000000pt" height="300.000000pt" viewBox="0 0 531.000000 300.000000"
 preserveAspectRatio="xMidYMid meet">

<g transform="translate(0.000000,300.000000) scale(0.100000,-0.100000)"
fill="#000000" stroke="none">
<path d="M897 2989 c-43 -4 -113 -18 -155 -29 -85 -23 -196 -70 -187 -78 3 -3
40 -8 83 -10 86 -4 111 -12 39 -12 -26 0 -47 -4 -47 -10 0 -6 48 -10 123 -10
67 0 185 -7 262 -15 77 -8 147 -15 155 -16 8 -1 -1 -5 -20 -9 -34 -7 -34 -7
13 -9 26 0 47 -5 47 -11 0 -5 14 -10 30 -10 17 0 30 4 30 9 0 7 23 17 48 20 4
0 7 -6 7 -15 0 -24 40 -37 55 -18 9 9 30 14 69 12 l56 -1 -44 -6 c-69 -9 -32
-27 73 -36 74 -6 88 -5 84 7 -4 10 2 14 20 13 14 0 27 -6 30 -12 2 -7 17 -13
32 -13 16 0 32 -4 35 -10 11 -17 28 -11 20 8 -5 14 -4 15 6 5 7 -7 24 -13 37
-13 14 0 21 -4 16 -11 -4 -8 0 -7 15 1 12 6 39 9 59 7 l37 -4 -38 -1 c-21 -1
-36 -6 -33 -11 4 -5 22 -5 43 0 60 14 93 12 87 -6 -8 -20 24 -19 50 0 23 17
40 20 31 5 -3 -5 -1 -10 4 -10 6 0 11 5 11 10 0 6 11 10 25 10 14 0 25 -4 25
-10 0 -5 -10 -10 -22 -10 -39 0 -13 -9 43 -15 29 -3 89 -12 133 -20 97 -19
166 -20 166 -2 1 6 9 3 18 -9 16 -18 33 -22 123 -27 57 -4 136 -7 176 -7 50 0
76 -5 87 -15 8 -8 23 -15 34 -15 11 0 22 7 26 15 3 8 10 15 15 15 6 0 8 -6 5
-13 -4 -11 20 -16 103 -25 177 -18 282 -22 288 -12 3 6 15 10 26 10 13 0 18
-4 13 -12 -5 -7 -3 -8 6 -3 8 5 18 1 27 -10 13 -18 13 -18 27 1 8 10 18 16 21
12 4 -4 26 3 49 14 22 12 52 23 66 25 14 2 30 10 36 18 12 16 29 21 20 6 -3
-5 22 -3 57 4 90 19 204 28 210 18 12 -20 -13 -34 -68 -39 -33 -2 -62 -8 -65
-13 -3 -4 -23 -8 -45 -8 -49 -1 -95 -6 -95 -11 0 -12 247 -232 261 -232 12 0
12 37 0 42 -5 2 -4 31 3 66 6 35 15 60 19 56 4 -4 7 4 8 17 0 23 1 23 9 3 10
-25 65 -42 145 -43 32 -1 62 -5 65 -10 3 -5 19 -8 35 -8 17 0 84 -2 150 -5 66
-3 112 -4 103 -1 -10 2 -18 9 -18 14 0 12 43 1 48 -12 2 -5 22 -9 44 -9 22 0
46 -7 54 -15 16 -15 99 -22 90 -7 -3 5 20 10 50 11 37 1 54 -1 49 -8 -6 -10 7
-15 28 -12 4 0 7 -4 7 -9 0 -6 -7 -10 -15 -10 -8 0 -15 -4 -15 -10 0 -5 14
-10 30 -10 17 0 30 4 30 9 0 11 102 21 115 11 27 -22 184 -23 171 -2 -2 4 18
7 45 7 32 0 49 4 49 12 0 7 7 10 15 7 53 -21 -63 165 -170 272 -172 172 -355
262 -596 294 -91 12 -3410 11 -3522 -1z m-70 -125 c-3 -3 -12 -4 -19 -1 -8 3
-5 6 6 6 11 1 17 -2 13 -5z m1610 -210 c-3 -3 -12 -4 -19 -1 -8 3 -5 6 6 6 11
1 17 -2 13 -5z m771 -81 c-10 -2 -28 -2 -40 0 -13 2 -5 4 17 4 22 1 32 -1 23
-4z"/>
<path d="M1935 2650 c3 -5 8 -10 11 -10 2 0 4 5 4 10 0 6 -5 10 -11 10 -5 0
-7 -4 -4 -10z"/>
<path d="M2258 2613 c7 -3 16 -2 19 1 4 3 -2 6 -13 5 -11 0 -14 -3 -6 -6z"/>
<path d="M2558 2588 c5 -21 38 -24 45 -4 4 9 -3 15 -22 18 -23 3 -27 1 -23
-14z"/>
<path d="M2875 2561 c3 -5 -5 -12 -17 -14 -20 -4 -20 -4 4 -6 31 -1 46 14 22
23 -8 3 -12 2 -9 -3z"/>
<path d="M3068 2531 c12 -7 62 -4 62 5 0 2 -17 4 -37 4 -24 0 -33 -3 -25 -9z"/>
<path d="M3030 2500 c19 -13 30 -13 30 0 0 6 -10 10 -22 10 -19 0 -20 -2 -8
-10z"/>
<path d="M4467 2423 c6 -14 63 -18 63 -4 0 5 -15 11 -34 13 -24 3 -32 0 -29
-9z"/>
<path d="M3504 2411 c-61 -37 -83 -136 -43 -192 56 -79 183 -78 224 1 18 35
19 116 1 148 -32 59 -122 80 -182 43z m122 -6 c23 -17 15 -19 -22 -5 -37 14
-88 -3 -109 -38 -10 -15 -12 -21 -4 -14 29 27 82 1 56 -28 -6 -8 -2 -6 11 5
17 14 25 16 34 7 8 -8 8 -15 -2 -27 -14 -17 0 -21 16 -5 14 14 59 -34 51 -54
-4 -10 -19 -14 -51 -13 -28 1 -42 5 -36 11 15 15 12 29 -5 22 -9 -3 -15 0 -15
9 0 9 -6 12 -15 9 -9 -4 -15 0 -15 9 0 19 -24 29 -38 15 -13 -13 -10 41 3 63
29 45 102 63 141 34z m45 -42 c13 -16 12 -17 -3 -4 -17 13 -22 21 -14 21 2 0
10 -8 17 -17z m15 -98 c-4 -18 -13 -39 -21 -45 -13 -11 -13 -9 0 16 8 16 16
47 16 69 1 26 3 32 6 16 3 -13 2 -38 -1 -56z"/>
<path d="M3515 2330 c4 -6 11 -8 16 -5 14 9 11 15 -7 15 -8 0 -12 -5 -9 -10z"/>
<path d="M4887 2379 c7 -7 15 -10 18 -7 3 3 -2 9 -12 12 -14 6 -15 5 -6 -5z"/>
<path d="M910 2333 c-1 -60 54 -578 61 -581 4 -2 5 -10 2 -18 -3 -8 5 -120 18
-249 16 -163 26 -228 32 -213 8 21 1 119 -24 338 -5 47 -20 211 -34 365 -14
154 -28 304 -32 333 -6 54 -23 72 -23 25z"/>
<path d="M1023 2309 c4 -24 36 -348 73 -719 37 -371 70 -679 75 -684 8 -9 484
35 1069 99 168 19 338 37 378 41 l74 7 -4 36 c-29 252 -74 591 -78 591 -12 0
-194 -156 -333 -285 -95 -87 -146 -127 -162 -127 -13 0 -50 19 -82 44 -69 53
-185 129 -231 152 -18 10 -32 21 -30 26 3 9 173 131 210 151 27 14 38 1 99
-122 24 -49 47 -89 51 -89 3 0 39 46 78 101 81 114 184 237 289 349 61 65 71
80 71 112 0 20 -3 39 -7 41 -10 6 -135 32 -888 183 -341 68 -628 127 -639 130
-17 6 -18 2 -13 -37z m111 -126 c5 -11 1 -22 -10 -30 -22 -16 -35 -5 -28 25 7
26 29 29 38 5z m456 -1208 c0 -8 -9 -15 -20 -15 -11 0 -20 7 -20 15 0 8 9 15
20 15 11 0 20 -7 20 -15z m-168 -27 c-15 -15 -26 -4 -18 18 5 13 9 15 18 6 9
-9 9 -15 0 -24z m58 17 c0 -8 -4 -15 -10 -15 -5 0 -10 7 -10 15 0 8 5 15 10
15 6 0 10 -7 10 -15z m-245 -33 c-8 -8 -25 10 -19 20 4 6 9 5 15 -3 4 -7 6
-15 4 -17z"/>
<path d="M3055 2285 c-43 -23 -64 -44 -92 -93 -25 -42 -66 -142 -59 -142 2 0
24 11 47 25 73 42 179 30 179 -19 0 -14 14 -41 31 -60 l30 -35 -36 -48 c-44
-58 -31 -67 43 -29 l51 26 19 -27 c19 -26 20 -26 53 -11 19 9 50 18 69 22 19
3 41 10 49 15 16 10 15 12 -41 83 -23 29 -26 39 -19 65 5 17 5 37 -1 46 -10
19 -53 23 -63 7 -8 -12 -25 -1 -90 59 -47 43 -48 45 -36 78 7 19 11 37 8 39
-3 3 -29 7 -58 10 -39 4 -63 0 -84 -11z m285 -193 c-13 -9 -40 -30 -60 -46
-19 -15 -13 -7 13 18 27 25 54 46 60 45 7 0 1 -8 -13 -17z"/>
<path d="M1905 2220 c-7 -12 2 -30 16 -30 12 0 12 27 0 35 -5 3 -12 1 -16 -5z"/>
<path d="M3035 1986 c-41 -25 -87 -76 -143 -158 -36 -52 -128 -150 -184 -194
-37 -29 -37 -30 -31 -87 4 -35 10 -57 18 -57 30 0 249 107 352 172 34 22 67
37 72 34 13 -8 99 60 115 92 37 74 20 102 -32 53 -28 -25 -127 -78 -261 -138
l-55 -24 61 62 c34 34 76 89 94 123 36 69 66 106 86 106 11 0 11 4 1 20 -17
26 -44 25 -93 -4z m54 0 c-2 -2 -20 -11 -39 -20 l-35 -17 25 20 c14 11 31 21
39 21 8 0 12 -2 10 -4z m81 -239 c0 -2 -12 -14 -27 -28 l-28 -24 24 28 c23 25
31 32 31 24z"/>
<path d="M3490 1911 c-25 -10 -64 -22 -87 -26 -41 -6 -43 -8 -43 -43 0 -42
-35 -118 -61 -135 -60 -38 51 -32 134 6 92 42 134 104 125 182 -4 36 -13 38
-68 16z"/>
<path d="M3253 1636 c-225 -73 -322 -357 -197 -573 13 -23 24 -50 24 -60 0
-15 4 -13 25 9 14 15 25 30 25 33 0 3 -11 22 -25 43 -54 81 -68 225 -31 312
23 56 73 118 116 145 209 132 490 -10 508 -257 7 -94 -4 -148 -42 -211 -31
-52 -32 -55 -16 -76 l16 -23 27 39 c139 202 67 488 -150 595 -56 27 -78 32
-152 35 -53 2 -102 -2 -128 -11z"/>
<path d="M3341 1564 c0 -11 3 -14 6 -6 3 7 2 16 -1 19 -3 4 -6 -2 -5 -13z"/>
<path d="M3270 1540 c0 -11 4 -20 9 -20 5 0 7 9 4 20 -3 11 -7 20 -9 20 -2 0
-4 -9 -4 -20z"/>
<path d="M3445 1543 c3 -8 5 -17 5 -19 0 -3 5 -2 10 1 16 10 12 32 -5 32 -10
0 -14 -6 -10 -14z"/>
<path d="M3256 1503 c-13 -14 -5 -33 14 -33 11 0 20 6 20 14 0 15 -24 28 -34
19z"/>
<path d="M3410 1485 c0 -6 9 -11 20 -12 11 -1 20 4 20 10 0 7 4 6 10 -3 8 -13
10 -12 10 3 0 13 -7 17 -30 15 -16 -1 -30 -7 -30 -13z"/>
<path d="M3110 1432 c0 -12 40 -33 50 -27 6 4 10 1 10 -5 0 -6 5 -8 10 -5 16
10 11 23 -7 21 -10 -2 -24 3 -31 11 -15 14 -32 17 -32 5z"/>
<path d="M3615 1418 c-11 -7 -27 -12 -35 -13 -18 0 -20 -27 -2 -33 8 -2 10 2
6 13 -4 9 -3 15 2 13 15 -4 54 13 54 23 0 11 0 11 -25 -3z"/>
<path d="M3522 1390 c0 -14 2 -19 5 -12 2 6 2 18 0 25 -3 6 -5 1 -5 -13z"/>
<path d="M3540 1390 c0 -11 4 -20 8 -20 4 0 8 9 8 20 0 11 -4 20 -8 20 -4 0
-8 -9 -8 -20z"/>
<path d="M3080 1376 c0 -2 7 -7 16 -10 8 -3 12 -2 9 4 -6 10 -25 14 -25 6z"/>
<path d="M3445 1330 c-3 -5 -25 -7 -49 -4 -54 8 -76 -11 -76 -66 0 -34 -6 -44
-55 -87 -30 -26 -55 -52 -55 -58 0 -6 3 -6 8 1 4 6 32 29 62 51 45 34 61 40
88 36 26 -4 39 0 58 18 21 20 24 29 19 60 -5 30 -3 39 12 48 10 6 13 11 6 11
-6 0 -15 -4 -18 -10z"/>
<path d="M3658 1313 c7 -3 16 -2 19 1 4 3 -2 6 -13 5 -11 0 -14 -3 -6 -6z"/>
<path d="M3078 1283 c7 -3 16 -2 19 1 4 3 -2 6 -13 5 -11 0 -14 -3 -6 -6z"/>
<path d="M3144 1275 c-4 -9 -4 -19 0 -22 3 -4 6 2 7 13 0 18 1 18 9 -1 7 -16
9 -17 9 -3 1 23 -18 33 -25 13z"/>
<path d="M3121 1264 c0 -11 3 -14 6 -6 3 7 2 16 -1 19 -3 4 -6 -2 -5 -13z"/>
<path d="M3658 1273 c7 -3 16 -2 19 1 4 3 -2 6 -13 5 -11 0 -14 -3 -6 -6z"/>
<path d="M3607 1264 c-8 -8 1 -24 14 -24 5 0 9 7 9 15 0 15 -12 20 -23 9z"/>
<path d="M3078 1253 c6 -2 18 -2 25 0 6 3 1 5 -13 5 -14 0 -19 -2 -12 -5z"/>
<path d="M3650 1250 c0 -5 10 -10 23 -10 18 0 19 2 7 10 -19 13 -30 13 -30 0z"/>
<path d="M3648 1163 c7 -3 16 -2 19 1 4 3 -2 6 -13 5 -11 0 -14 -3 -6 -6z"/>
<path d="M3630 1140 c0 -5 6 -10 13 -11 6 0 1 -5 -12 -10 -16 -6 -21 -14 -17
-25 5 -12 2 -15 -10 -10 -14 5 -15 4 -4 -9 14 -17 35 -21 25 -5 -3 6 -2 10 4
10 9 0 41 50 41 65 0 3 -9 5 -20 5 -11 0 -20 -4 -20 -10z m10 -40 c0 -5 -2
-10 -4 -10 -3 0 -8 5 -11 10 -3 6 -1 10 4 10 6 0 11 -4 11 -10z"/>
<path d="M3165 1094 c-16 -13 -25 -24 -20 -24 12 1 59 39 54 44 -2 2 -17 -7
-34 -20z"/>
<path d="M3495 1110 c-11 -18 3 -26 42 -25 27 1 39 6 41 18 2 9 -1 17 -7 17
-6 0 -8 -8 -5 -17 5 -17 5 -17 -6 0 -6 9 -15 17 -20 17 -5 0 -7 -8 -4 -17 5
-17 5 -17 -6 0 -12 19 -26 22 -35 7z"/>
<path d="M2770 920 c-159 -22 -491 -72 -535 -80 -27 -6 -156 -26 -285 -45
-129 -20 -260 -40 -290 -45 -30 -6 -82 -13 -114 -16 -69 -6 -101 -18 -70 -27
10 -3 87 -18 169 -32 157 -27 200 -35 429 -80 144 -29 138 -29 271 -1 17 4 64
13 105 21 41 8 107 22 145 30 129 28 309 66 495 105 317 66 400 85 400 91 0 3
-66 14 -147 23 -82 10 -222 29 -313 42 -175 25 -175 25 -260 14z"/>
<path d="M1227 772 c-88 -13 -113 -13 -129 -3 -26 16 -32 9 -24 -33 10 -52 56
-72 56 -25 0 22 7 24 148 45 61 9 112 21 112 25 0 12 -31 10 -163 -9z"/>
<path d="M700 741 c-333 -44 -349 -30 135 -116 171 -31 382 -69 470 -85 88
-16 274 -50 414 -75 140 -25 388 -71 550 -101 430 -80 452 -84 496 -84 23 0
168 43 350 103 171 57 473 154 672 217 199 63 358 116 353 118 -5 2 -75 -18
-157 -43 -386 -122 -530 -167 -553 -175 -14 -5 -101 -32 -195 -60 -93 -28
-219 -67 -279 -86 -198 -64 -189 -64 -561 25 -138 32 -308 71 -380 85 -407 79
-841 169 -859 177 -12 5 -28 13 -36 18 -8 5 -23 12 -33 15 -18 6 -31 31 -41
79 -8 34 14 34 -346 -12z"/>
<path d="M1394 629 c-6 -11 5 -16 50 -24 31 -6 38 -5 34 6 -5 15 -76 31 -84
18z"/>
<path d="M1546 601 c-3 -5 17 -14 44 -20 62 -13 60 -13 60 -2 0 5 -15 12 -32
16 -18 4 -40 9 -50 11 -9 3 -19 1 -22 -5z"/>
<path d="M2086 485 c-3 -9 0 -18 7 -20 24 -7 443 -107 483 -114 39 -7 40 -7
36 16 -2 13 -12 28 -22 33 -21 11 -443 100 -476 100 -12 0 -25 -7 -28 -15z"/>
<path d="M2903 409 c-59 -18 -63 -22 -63 -50 0 -34 -10 -34 108 5 51 18 67 27
67 42 0 27 -36 28 -112 3z"/>
<path d="M2692 353 c2 -24 8 -28 36 -31 31 -3 33 -2 30 25 -2 24 -8 28 -36 31
-31 3 -33 2 -30 -25z"/>
</g>
</svg>
