<?xml version="1.0" standalone="no"?>
<!DOCTYPE svg PUBLIC "-//W3C//DTD SVG 20010904//EN"
 "http://www.w3.org/TR/2001/REC-SVG-20010904/DTD/svg10.dtd">
<svg version="1.0" xmlns="http://www.w3.org/2000/svg"
 width="531.000000pt" height="300.000000pt" viewBox="0 0 531.000000 300.000000"
 preserveAspectRatio="xMidYMid meet">

<g transform="translate(0.000000,300.000000) scale(0.100000,-0.100000)"
fill="#000000" stroke="none">
<path d="M1175 2585 c-3 -8 -7 -22 -10 -31 -3 -8 -1 -13 4 -10 5 3 11 17 13
31 6 27 0 34 -7 10z"/>
<path d="M1352 2570 c0 -14 2 -19 5 -12 2 6 2 18 0 25 -3 6 -5 1 -5 -13z"/>
<path d="M3922 2534 c10 -10 20 -16 22 -13 3 3 -5 11 -17 18 -21 13 -21 12 -5
-5z"/>
<path d="M3838 2513 c7 -3 16 -2 19 1 4 3 -2 6 -13 5 -11 0 -14 -3 -6 -6z"/>
<path d="M3735 2500 c-3 -6 1 -7 9 -4 18 7 21 14 7 14 -6 0 -13 -4 -16 -10z"/>
<path d="M1149 2473 c-13 -14 -18 -23 -10 -18 9 5 12 3 9 -6 -3 -8 -11 -14
-18 -14 -7 0 -15 -7 -17 -15 -3 -10 -2 -11 4 -3 5 7 8 -15 8 -52 0 -57 3 -67
29 -94 16 -17 32 -29 34 -26 3 2 14 -2 26 -10 45 -32 136 -3 169 53 20 35 22
106 4 142 -30 60 -143 93 -193 55 -25 -19 -40 -19 -24 0 21 26 5 16 -21 -12z
m169 -4 c2 -5 12 -9 22 -9 20 0 34 -26 23 -42 -3 -7 -1 -8 5 -4 20 12 24 -41
7 -94 -20 -62 -57 -85 -119 -77 -22 3 -42 10 -44 15 -2 6 -12 8 -22 5 -22 -6
-29 20 -10 32 14 8 -7 35 -23 32 -7 -1 -11 10 -10 28 1 17 4 48 5 71 3 40 4
41 31 33 15 -4 25 -4 22 1 -3 5 0 12 6 16 6 3 15 0 20 -7 7 -11 9 -10 9 5 0
16 5 17 38 11 20 -4 39 -11 40 -16z"/>
<path d="M1166 2404 c-4 -9 -4 -19 -1 -22 2 -3 7 3 11 12 4 9 4 19 1 22 -2 3
-7 -3 -11 -12z"/>
<path d="M1365 2480 c10 -11 20 -20 23 -20 3 0 -3 9 -13 20 -10 11 -20 20 -23
20 -3 0 3 -9 13 -20z"/>
<path d="M3610 2494 c0 -5 5 -15 11 -21 8 -8 9 -20 1 -43 -6 -17 -7 -28 -3
-25 18 11 22 56 6 78 -8 12 -15 17 -15 11z"/>
<path d="M3744 2481 c-18 -11 -35 -24 -39 -30 -3 -6 -10 -9 -15 -6 -5 3 -12 0
-16 -6 -5 -8 -3 -9 6 -4 10 6 12 4 7 -9 -18 -46 -17 -67 1 -109 24 -54 57 -78
115 -84 50 -6 100 15 118 49 28 53 29 90 4 163 -7 20 -6 20 9 1 9 -11 16 -15
16 -9 0 6 -7 16 -15 23 -8 7 -15 10 -15 6 0 -3 -15 3 -32 14 -42 25 -104 26
-144 1z m86 -4 c0 -7 11 -12 28 -11 39 2 49 -4 62 -35 14 -35 8 -89 -14 -127
-19 -32 -95 -72 -105 -56 -3 5 -21 13 -39 17 -35 7 -60 39 -40 51 7 5 4 10
-10 15 -26 10 -29 39 -4 39 13 0 14 2 3 9 -10 7 -11 13 -2 30 7 11 9 21 5 21
-3 0 -1 7 6 15 8 9 21 13 37 9 19 -5 25 -2 30 15 6 23 43 30 43 8z m-50 -7 c0
-5 -7 -10 -15 -10 -8 0 -15 5 -15 10 0 6 7 10 15 10 8 0 15 -4 15 -10z"/>
<path d="M3900 2411 c0 -6 4 -13 10 -16 6 -3 7 1 4 9 -7 18 -14 21 -14 7z"/>
<path d="M1449 2473 c-13 -16 -12 -17 4 -4 9 7 17 15 17 17 0 8 -8 3 -21 -13z"/>
<path d="M3699 2473 c-13 -16 -12 -17 4 -4 16 13 21 21 13 21 -2 0 -10 -8 -17
-17z"/>
<path d="M1411 2394 c0 -11 3 -14 6 -6 3 7 2 16 -1 19 -3 4 -6 -2 -5 -13z"/>
<path d="M4052 2385 c0 -16 2 -22 5 -12 2 9 2 23 0 30 -3 6 -5 -1 -5 -18z"/>
<path d="M1101 2384 c0 -11 3 -14 6 -6 3 7 2 16 -1 19 -3 4 -6 -2 -5 -13z"/>
<path d="M1101 2334 c0 -11 3 -14 6 -6 3 7 2 16 -1 19 -3 4 -6 -2 -5 -13z"/>
<path d="M4006 2341 c-21 -34 -24 -60 -8 -72 14 -11 15 -11 5 0 -9 11 -9 21 2
48 13 30 13 45 1 24z"/>
<path d="M1058 2305 c9 -19 17 -33 19 -31 6 5 -19 66 -27 66 -4 0 0 -16 8 -35z"/>
<path d="M1411 2324 c0 -11 3 -14 6 -6 3 7 2 16 -1 19 -3 4 -6 -2 -5 -13z"/>
<path d="M3588 2333 c6 -2 18 -2 25 0 6 3 1 5 -13 5 -14 0 -19 -2 -12 -5z"/>
<path d="M1449 2303 c-5 -14 -7 -39 -4 -54 7 -31 -7 -44 -45 -41 -14 1 -36 -7
-50 -19 l-25 -20 34 16 c18 9 43 14 56 11 31 -8 59 28 43 54 -8 12 -8 26 0 49
13 38 6 42 -9 4z"/>
<path d="M3620 2315 c0 -5 5 -17 10 -25 5 -8 10 -10 10 -5 0 6 -5 17 -10 25
-5 8 -10 11 -10 5z"/>
<path d="M1110 2303 c0 -18 49 -72 81 -88 41 -22 115 -19 154 5 32 20 71 67
62 76 -2 2 -10 -8 -17 -22 -19 -35 -79 -64 -132 -64 -52 0 -101 28 -128 72
-11 18 -20 28 -20 21z"/>
<path d="M3681 2280 c9 -13 27 -32 40 -42 26 -19 93 -42 84 -29 -2 5 -19 11
-36 15 -18 3 -48 23 -68 44 -21 21 -29 27 -20 12z"/>
<path d="M1050 2250 c1 -27 27 -52 49 -45 27 8 61 -15 61 -42 0 -13 4 -23 9
-23 13 0 -1 54 -18 67 -9 7 -29 12 -46 10 -22 -1 -32 4 -42 23 -7 14 -13 18
-13 10z"/>
<path d="M3913 2249 c-6 -6 -28 -17 -49 -24 -23 -8 -31 -14 -19 -15 19 0 85
34 85 45 0 8 -5 6 -17 -6z"/>
<path d="M3995 2230 c-3 -6 -17 -7 -30 -4 -28 7 -74 -22 -75 -47 0 -23 -26
-31 -40 -13 -17 20 -66 18 -75 -3 -5 -15 -4 -16 6 -5 18 16 54 15 69 -3 14
-17 50 -4 50 19 0 24 37 49 63 42 16 -4 29 0 37 9 7 8 10 15 7 15 -3 0 -9 -5
-12 -10z"/>
<path d="M3631 2216 c13 -14 21 -16 36 -7 14 7 24 7 33 -2 12 -10 12 -9 1 5
-10 14 -17 15 -33 7 -14 -8 -24 -7 -36 2 -16 12 -16 12 -1 -5z"/>
<path d="M3728 2175 c2 -14 8 -25 12 -25 10 0 1 38 -10 45 -4 2 -5 -7 -2 -20z"/>
<path d="M1205 2150 c-10 -11 -13 -20 -8 -20 6 0 13 6 16 14 3 8 21 16 39 19
l33 4 -31 1 c-20 1 -37 -5 -49 -18z"/>
<path d="M1283 2137 c1 -5 6 -8 10 -8 4 1 14 1 22 1 8 0 15 3 15 8 0 4 -11 7
-25 7 -14 0 -24 -4 -22 -8z"/>
<path d="M503 1830 c-16 -6 -23 -18 -23 -35 0 -26 -39 -75 -60 -75 -6 0 -24 7
-40 15 -28 15 -30 14 -55 -20 -26 -33 -26 -35 -9 -64 16 -28 16 -31 0 -55 -11
-18 -25 -26 -45 -26 -51 0 -57 -58 -9 -91 l31 -23 -31 -26 c-18 -15 -32 -36
-32 -48 0 -27 26 -52 55 -52 33 0 53 -50 32 -81 -14 -20 -14 -24 6 -50 22 -31
45 -36 79 -18 32 17 65 -5 72 -51 4 -28 12 -39 28 -44 42 -11 58 -6 70 19 16
36 53 34 66 -4 10 -28 12 -29 48 -21 40 9 54 23 54 56 0 32 50 50 91 34 29
-12 32 -11 62 18 28 29 30 33 17 56 -20 39 2 82 48 93 27 6 38 15 45 37 9 26
6 32 -17 52 -32 29 -33 37 -1 54 19 10 25 21 24 44 l-2 31 -4 -28 c-3 -18 -14
-32 -29 -39 -31 -15 -31 -42 2 -65 21 -15 24 -24 19 -46 -6 -21 -13 -27 -34
-27 -34 0 -45 -8 -63 -45 -11 -21 -13 -37 -7 -54 19 -49 -17 -84 -62 -61 -35
19 -97 -14 -105 -55 -8 -47 -49 -54 -70 -14 -19 39 -64 40 -88 3 -25 -37 -58
-29 -70 17 -12 49 -57 73 -101 54 -26 -11 -33 -10 -52 8 -21 19 -22 21 -6 47
14 24 14 32 2 58 -10 24 -21 31 -51 36 -21 4 -38 10 -38 15 0 5 -3 16 -6 25
-4 10 5 20 25 31 22 11 31 23 31 40 0 14 -6 25 -13 25 -29 0 -49 25 -42 53 6
23 13 27 41 27 29 0 36 5 49 36 13 32 13 38 -1 60 -15 22 -15 26 0 49 19 28
30 30 65 11 21 -12 28 -11 57 8 24 15 33 29 34 48 1 59 63 78 92 28 24 -43 68
-39 82 7 4 14 17 23 34 26 26 4 26 4 -4 6 -24 1 -33 -5 -42 -24 -8 -16 -20
-25 -35 -25 -16 0 -28 9 -35 25 -12 26 -38 31 -79 15z"/>
<path d="M2988 1835 c-3 -3 -19 -7 -36 -10 -42 -5 -52 -12 -52 -37 0 -26 37
-68 54 -62 6 2 22 -13 35 -33 l23 -36 13 23 c14 25 29 12 18 -16 -4 -11 -2
-15 4 -11 6 4 18 -2 28 -13 10 -11 28 -20 40 -20 17 0 25 11 38 53 24 76 22
94 -17 133 -30 30 -40 34 -88 34 -30 0 -57 -2 -60 -5z"/>
<path d="M738 1818 c7 -7 12 -24 12 -39 0 -20 9 -32 36 -48 34 -20 37 -21 64
-4 28 16 30 16 52 -3 22 -18 22 -18 -1 8 -23 26 -25 27 -53 12 -40 -21 -88 -3
-88 31 0 32 -10 55 -23 55 -7 0 -7 -4 1 -12z"/>
<path d="M4573 1820 c-18 -7 -23 -17 -23 -43 0 -28 -5 -36 -33 -49 -29 -14
-37 -14 -67 -2 -33 14 -35 14 -63 -15 l-29 -29 18 -30 c25 -43 8 -78 -39 -87
-29 -6 -36 -12 -41 -38 -5 -27 -2 -35 19 -50 31 -23 32 -36 0 -62 -21 -17 -24
-25 -17 -50 6 -22 17 -32 41 -39 43 -12 68 -58 51 -94 -10 -23 -8 -29 18 -55
29 -28 30 -29 61 -13 28 15 34 15 61 1 20 -11 33 -26 37 -46 6 -34 7 -34 50
-43 28 -7 33 -4 48 23 20 39 32 39 64 1 24 -29 28 -30 58 -20 26 9 34 19 39
46 9 48 47 68 88 47 29 -15 31 -15 58 17 27 33 27 33 9 59 -17 24 -18 29 -5
53 9 17 27 31 46 36 24 6 34 16 40 37 7 25 4 33 -17 48 -32 24 -32 44 0 59 27
12 30 23 16 62 -7 16 -19 26 -38 28 -41 5 -56 41 -35 84 15 33 15 35 -12 63
-28 29 -29 29 -62 14 -49 -24 -84 -6 -84 41 0 34 -14 47 -48 45 -10 -1 -6 -4
8 -8 20 -5 26 -14 28 -41 2 -27 10 -39 34 -53 29 -17 32 -17 63 2 l33 19 23
-24 c23 -24 23 -25 5 -58 -17 -31 -17 -36 -2 -65 12 -22 24 -31 41 -31 23 0
45 -24 45 -50 0 -6 -11 -15 -24 -22 -38 -17 -41 -40 -11 -64 36 -28 32 -68 -7
-72 -16 -2 -36 -15 -48 -32 -24 -34 -25 -44 -5 -74 14 -21 14 -25 -2 -45 -16
-20 -21 -21 -52 -10 -29 10 -39 9 -67 -6 -28 -15 -34 -24 -34 -50 0 -25 -5
-34 -22 -39 -33 -8 -34 -8 -46 19 -17 36 -74 36 -90 -1 -17 -37 -54 -29 -68
14 -7 22 -22 38 -49 52 -36 18 -41 19 -63 4 -22 -15 -25 -14 -48 7 -19 18 -21
25 -13 42 8 15 7 29 -7 58 -14 33 -23 40 -56 45 -21 4 -38 12 -38 19 0 8 -2
20 -6 28 -3 9 6 19 25 27 36 15 43 55 12 65 -54 17 -49 70 8 80 28 5 40 13 50
36 11 25 11 33 -4 55 -17 26 -13 55 10 74 10 9 21 7 45 -5 27 -14 37 -15 62
-4 42 17 58 36 58 70 0 22 6 30 25 35 14 3 32 3 40 0 9 -3 13 -2 10 4 -8 12
-42 12 -72 0z"/>
<path d="M4734 1805 c-17 -26 -74 -36 -74 -13 0 6 -3 8 -6 5 -12 -11 17 -37
41 -37 16 0 30 11 44 35 23 40 20 48 -5 10z"/>
<path d="M570 1691 c-114 -35 -190 -131 -190 -241 0 -168 166 -281 331 -225
86 29 145 107 157 207 5 35 5 71 1 79 -4 8 -13 29 -19 47 -37 99 -175 165
-280 133z m191 -46 c27 -19 54 -51 72 -85 25 -48 28 -63 24 -115 -8 -108 -70
-189 -163 -215 -85 -24 -194 6 -247 69 -87 104 -69 260 39 333 70 46 77 49
156 46 66 -3 82 -7 119 -33z"/>
<path d="M545 1646 c-40 -18 -90 -72 -109 -118 -20 -47 -21 -140 -2 -176 31
-60 119 -111 191 -112 44 0 131 36 157 66 27 31 58 106 58 144 0 84 -50 168
-117 196 -41 18 -139 17 -178 0z m115 -12 c0 -8 -4 -12 -10 -9 -5 3 -10 10
-10 16 0 5 5 9 10 9 6 0 10 -7 10 -16z m59 -4 c13 -6 17 -18 15 -37 -2 -15 -1
-20 2 -10 7 21 13 21 39 -1 32 -26 48 -76 40 -119 -4 -21 -9 -50 -11 -66 -2
-15 -10 -34 -18 -42 -8 -8 -16 -20 -19 -27 -3 -10 -9 -11 -26 0 -11 6 -24 12
-28 12 -5 0 0 -5 10 -11 27 -16 21 -25 -32 -48 -60 -26 -71 -26 -71 -3 0 13
-2 14 -9 3 -7 -11 -15 -11 -45 -1 -21 7 -33 16 -30 22 4 6 3 8 -3 5 -6 -4 -19
0 -29 8 -16 12 -17 17 -6 35 11 17 10 23 -3 36 -8 9 -15 24 -15 34 0 11 -7 23
-16 28 -26 15 -10 62 20 62 25 0 41 24 29 43 -4 6 -10 2 -14 -11 -5 -12 -15
-22 -23 -22 -13 0 -14 4 -4 25 6 14 15 25 20 25 4 0 8 6 8 14 0 8 10 22 22 30
19 14 24 14 38 1 17 -15 50 -11 50 6 0 5 12 3 26 -3 22 -10 27 -9 35 5 11 19
23 21 48 7z m-249 -225 c15 -46 8 -67 -12 -35 -9 14 -19 35 -23 48 -11 38 22
26 35 -13z"/>
<path d="M560 1460 c0 -56 32 -92 79 -88 20 2 35 6 33 10 -2 3 -28 31 -58 61
l-54 54 0 -37z"/>
<path d="M712 1455 c0 -16 2 -22 5 -12 2 9 2 23 0 30 -3 6 -5 -1 -5 -18z"/>
<path d="M574 1326 c11 -9 24 -16 30 -16 12 0 7 5 -24 19 -24 11 -24 11 -6 -3z"/>
<path d="M680 1320 c-9 -6 -10 -10 -3 -10 6 0 15 5 18 10 8 12 4 12 -15 0z"/>
<path d="M912 1666 c-18 -48 3 -91 49 -100 18 -3 34 -4 37 -2 2 3 -12 8 -31
11 -43 8 -66 49 -47 85 6 11 10 26 8 31 -2 6 -9 -5 -16 -25z"/>
<path d="M2945 1690 c3 -5 8 -10 11 -10 2 0 4 5 4 10 0 6 -5 10 -11 10 -5 0
-7 -4 -4 -10z"/>
<path d="M4584 1666 c-88 -39 -151 -140 -141 -231 3 -27 11 -63 18 -80 7 -16
13 -34 13 -40 1 -17 72 -74 112 -91 55 -23 150 -21 199 4 46 23 96 74 118 117
55 113 8 253 -105 309 -59 30 -160 35 -214 12z m201 -17 c116 -55 159 -189 98
-310 -39 -76 -93 -112 -179 -117 -81 -5 -141 16 -184 64 -107 123 -73 306 70
368 52 23 141 20 195 -5z"/>
<path d="M4590 1628 c-68 -35 -103 -86 -108 -157 -2 -32 1 -74 7 -92 25 -76
114 -138 197 -139 58 0 139 43 172 92 36 56 43 148 13 205 -52 102 -178 143
-281 91z m163 -10 c15 -7 16 -12 6 -24 -14 -17 -5 -18 21 -2 16 10 23 10 37
-4 15 -16 15 -19 1 -35 -14 -16 -14 -20 -1 -32 8 -7 13 -22 10 -32 -3 -10 2
-20 10 -23 29 -11 33 -6 18 24 -18 34 -18 40 -4 40 5 0 7 -4 4 -10 -3 -5 -2
-10 3 -10 28 0 19 -90 -9 -97 -21 -6 -42 -56 -28 -70 6 -6 2 -16 -11 -28 -19
-17 -21 -17 -38 -2 -10 10 -25 17 -33 17 -8 -1 -1 -8 14 -16 35 -19 29 -29
-26 -43 -52 -13 -92 -3 -149 34 -39 26 -75 86 -63 105 4 6 -1 10 -10 10 -21 0
-17 53 8 103 18 34 23 37 48 32 24 -5 29 -3 29 12 0 14 -2 15 -9 4 -5 -7 -14
-10 -20 -6 -24 15 27 53 83 62 17 3 33 7 35 9 5 5 51 -6 74 -18z"/>
<path d="M4650 1600 c0 -5 5 -10 11 -10 5 0 7 5 4 10 -3 6 -8 10 -11 10 -2 0
-4 -4 -4 -10z"/>
<path d="M4685 1454 c-33 -24 -64 -44 -69 -44 -5 0 -1 -9 9 -20 26 -29 85 -27
113 3 22 23 31 90 14 101 -4 2 -35 -15 -67 -40z"/>
<path d="M4590 1325 c-7 -9 -8 -15 0 -20 5 -3 10 -2 10 4 0 5 8 11 18 13 16 3
16 4 0 10 -9 4 -21 1 -28 -7z"/>
<path d="M3058 1573 c-21 -8 -38 -21 -38 -29 0 -8 -23 -20 -57 -30 -50 -14
-103 -53 -103 -75 0 -4 -23 -26 -51 -48 -61 -48 -99 -53 -167 -19 l-45 21 -19
-22 c-10 -13 -18 -29 -18 -35 0 -13 107 -103 146 -124 27 -14 65 -4 141 37 31
17 60 31 65 31 4 0 8 -22 8 -49 l0 -48 -45 -13 c-33 -9 -45 -18 -45 -32 0 -31
19 -58 40 -58 26 0 25 -18 -4 -53 -19 -24 -34 -30 -87 -37 -71 -9 -236 -61
-274 -86 -17 -11 -26 -28 -29 -57 -21 -169 -39 -290 -51 -337 -13 -50 -13 -56
3 -68 16 -12 14 -16 -18 -43 -19 -16 -61 -39 -93 -50 -32 -12 -56 -27 -54 -33
2 -7 52 -12 141 -14 l137 -3 -2 53 c-1 33 12 106 35 196 20 79 36 157 36 173
0 53 15 69 67 69 32 0 50 5 58 17 17 22 110 32 328 32 l168 1 -3 28 -3 27 -99
5 c-76 4 -101 9 -109 21 -13 20 28 274 49 306 18 28 71 43 156 43 l67 0 12 42
c6 24 9 67 7 97 -4 48 -9 58 -44 89 -21 19 -53 48 -71 63 -36 33 -76 37 -135
12z"/>
<path d="M4953 1455 c0 -22 2 -30 4 -17 2 12 2 30 0 40 -3 9 -5 -1 -4 -23z"/>
<path d="M4941 1388 c0 -9 -4 -25 -7 -35 -5 -17 -5 -17 6 0 6 10 9 25 7 35 -4
15 -5 15 -6 0z"/>
<path d="M2705 1130 c3 -5 11 -10 16 -10 6 0 7 5 4 10 -3 6 -11 10 -16 10 -6
0 -7 -4 -4 -10z"/>
<path d="M2761 791 c-11 -7 -12 -28 -7 -97 17 -251 18 -263 33 -266 23 -5 -20
-54 -68 -78 -21 -11 -39 -27 -39 -35 0 -12 20 -15 111 -15 l111 0 -6 48 c-7
58 -7 42 0 245 6 152 5 170 -11 187 -19 21 -97 28 -124 11z"/>
<path d="M1201 774 c0 -11 3 -14 6 -6 3 7 2 16 -1 19 -3 4 -6 -2 -5 -13z"/>
<path d="M1382 750 c0 -14 2 -19 5 -12 2 6 2 18 0 25 -3 6 -5 1 -5 -13z"/>
<path d="M1248 713 c12 -2 32 -2 45 0 12 2 2 4 -23 4 -25 0 -35 -2 -22 -4z"/>
<path d="M3810 716 c0 -2 7 -7 16 -10 8 -3 12 -2 9 4 -6 10 -25 14 -25 6z"/>
<path d="M3662 702 c2 -4 -6 -19 -16 -35 -10 -15 -21 -46 -23 -70 -13 -114
135 -180 218 -98 34 34 46 90 29 131 -15 36 -64 80 -88 80 -16 -1 -16 -1 0
-11 11 -6 15 -16 11 -27 -6 -15 -5 -15 11 -2 16 13 20 12 37 -9 32 -39 18
-151 -18 -151 -8 0 -12 -4 -8 -9 10 -17 -16 -24 -42 -10 -19 10 -28 11 -44 1
-23 -15 -50 -4 -73 30 -14 19 -14 23 2 34 16 12 16 13 0 14 -9 0 -20 5 -23 10
-7 12 13 80 23 80 4 0 13 9 19 19 10 15 9 20 -2 25 -8 3 -14 2 -13 -2z"/>
<path d="M3708 703 c7 -3 16 -2 19 1 4 3 -2 6 -13 5 -11 0 -14 -3 -6 -6z"/>
<path d="M1185 674 c-26 -17 -36 -20 -32 -10 9 23 0 19 -14 -5 -6 -12 -7 -19
-2 -16 6 4 8 -16 5 -47 -3 -36 1 -62 12 -84 44 -85 188 -85 232 0 21 40 20 99
-1 132 -38 58 -137 73 -200 30z m71 1 c4 -8 10 -15 15 -15 4 0 6 7 3 15 -4 9
0 15 9 15 28 0 67 -19 67 -32 0 -7 9 -19 19 -25 16 -10 19 -21 16 -57 -4 -55
-24 -89 -42 -74 -10 8 -13 6 -13 -5 0 -10 -6 -14 -15 -11 -8 4 -17 -1 -21 -10
-6 -16 -39 -21 -68 -10 -9 3 -13 11 -10 16 4 6 10 5 15 -3 4 -7 11 -10 16 -6
11 11 -16 25 -37 20 -20 -5 -65 58 -57 80 3 6 6 3 6 -7 1 -15 4 -17 13 -8 9 9
8 16 -5 30 -24 27 -21 37 20 71 41 34 61 39 69 16z"/>
<path d="M1289 533 c-13 -16 -12 -17 4 -4 16 13 21 21 13 21 -2 0 -10 -8 -17
-17z"/>
<path d="M1237 529 c7 -7 15 -10 18 -7 3 3 -2 9 -12 12 -14 6 -15 5 -6 -5z"/>
<path d="M1378 671 c17 -18 32 -37 32 -43 0 -6 3 -9 6 -6 8 9 -26 57 -50 70
-13 7 -9 0 12 -21z"/>
<path d="M3859 685 c17 -33 31 -51 31 -40 0 6 -10 21 -21 35 -13 17 -17 18
-10 5z"/>
<path d="M1460 655 c-7 -9 -11 -17 -9 -20 3 -2 10 5 17 15 14 24 10 26 -8 5z"/>
<path d="M3615 659 c-4 -6 -5 -12 -2 -15 2 -3 7 2 10 11 7 17 1 20 -8 4z"/>
<path d="M3603 585 c0 -27 2 -38 4 -22 2 15 2 37 0 50 -2 12 -4 0 -4 -28z"/>
<path d="M3781 613 c7 -12 15 -20 18 -17 3 2 -3 12 -13 22 -17 16 -18 16 -5
-5z"/>
<path d="M3971 604 c0 -11 3 -14 6 -6 3 7 2 16 -1 19 -3 4 -6 -2 -5 -13z"/>
<path d="M1423 570 c0 -25 2 -35 4 -22 2 12 2 32 0 45 -2 12 -4 2 -4 -23z"/>
<path d="M1112 575 c0 -16 2 -22 5 -12 2 9 2 23 0 30 -3 6 -5 -1 -5 -18z"/>
<path d="M1030 565 c0 -8 4 -15 10 -15 5 0 7 7 4 15 -4 8 -8 15 -10 15 -2 0
-4 -7 -4 -15z"/>
<path d="M1500 566 c0 -8 -6 -17 -12 -19 -8 -3 -6 -6 5 -6 11 -1 17 6 17 19 0
11 -2 20 -5 20 -3 0 -5 -6 -5 -14z"/>
<path d="M3786 563 c-6 -14 -5 -15 5 -6 7 7 10 15 7 18 -3 3 -9 -2 -12 -12z"/>
<path d="M3891 554 c0 -11 3 -14 6 -6 3 7 2 16 -1 19 -3 4 -6 -2 -5 -13z"/>
<path d="M3931 554 c0 -11 3 -14 6 -6 3 7 2 16 -1 19 -3 4 -6 -2 -5 -13z"/>
<path d="M3531 528 c-1 -24 3 -28 24 -28 15 0 25 -6 25 -14 0 -8 16 -27 35
-42 19 -14 35 -35 35 -46 0 -28 42 -41 54 -17 12 24 64 25 81 2 11 -14 17 -15
36 -5 24 11 24 11 -3 6 -22 -5 -28 -2 -28 10 0 21 -72 22 -90 1 -19 -23 -40
-18 -40 8 0 14 -12 32 -31 46 -16 12 -35 33 -41 45 -7 16 -16 22 -28 19 -13
-4 -20 2 -23 19 -4 21 -4 20 -6 -4z"/>
<path d="M1120 531 c0 -26 43 -79 77 -95 41 -20 103 -21 147 -2 33 14 76 59
76 80 0 6 -10 -4 -21 -22 -58 -90 -212 -80 -261 18 -10 19 -18 29 -18 21z"/>
<path d="M3665 530 c-3 -5 1 -10 9 -10 9 0 16 5 16 10 0 6 -4 10 -9 10 -6 0
-13 -4 -16 -10z"/>
<path d="M1083 503 c1 -18 6 -28 10 -24 4 4 3 18 -2 32 -9 23 -9 22 -8 -8z"/>
<path d="M3610 523 c0 -6 8 -17 18 -24 16 -13 16 -13 2 6 -8 11 -16 22 -17 24
-2 2 -3 0 -3 -6z"/>
<path d="M3876 513 c-6 -14 -5 -15 5 -6 7 7 10 15 7 18 -3 3 -9 -2 -12 -12z"/>
<path d="M1448 497 c-3 -19 -2 -25 4 -19 6 6 8 18 6 28 -3 14 -5 12 -10 -9z"/>
<path d="M3940 481 c-8 -15 -17 -20 -33 -16 -15 4 -32 -3 -52 -20 -21 -19 -24
-23 -8 -15 12 5 25 15 28 20 4 6 21 8 39 4 29 -5 34 -3 39 17 8 31 1 36 -13
10z"/>
<path d="M3662 464 c10 -10 20 -16 22 -13 3 3 -5 11 -17 18 -21 13 -21 12 -5
-5z"/>
<path d="M1447 433 c-13 -13 -19 -14 -31 -4 -18 15 -49 -3 -76 -44 -14 -21
-18 -23 -23 -11 -4 10 -17 16 -34 15 -21 -1 -23 -3 -8 -6 11 -3 24 -11 30 -19
14 -19 55 -7 55 16 0 27 25 43 58 35 20 -4 33 -1 42 10 18 21 8 28 -13 8z"/>
<path d="M3708 443 c7 -3 16 -2 19 1 4 3 -2 6 -13 5 -11 0 -14 -3 -6 -6z"/>
<path d="M3755 440 l-20 -9 20 1 c11 0 31 4 45 8 l25 8 -25 0 c-14 0 -34 -3
-45 -8z"/>
<path d="M1095 429 c-16 -8 -15 -8 9 -4 35 7 76 -17 76 -45 0 -11 4 -20 9 -20
16 0 -1 44 -23 62 -23 19 -41 21 -71 7z"/>
<path d="M1222 370 c-7 -11 -8 -20 -3 -20 9 0 24 30 18 36 -1 2 -8 -6 -15 -16z"/>
</g>
</svg>
